<?xml version="1.0" encoding="utf-8"?>
<!-- Generator: Adobe Illustrator 23.0.0, SVG Export Plug-In . SVG Version: 6.00 Build 0)  -->
<svg version="1.1" id="图层_1" xmlns="http://www.w3.org/2000/svg" xmlns:xlink="http://www.w3.org/1999/xlink" x="0px" y="0px"
	 viewBox="0 0 800 800" style="enable-background:new 0 0 800 800;" xml:space="preserve">
<style type="text/css">
	.st0{fill:#F24533;}
	.st1{fill:#61D0F2;}
	.st2{fill:#62EAF9;}
	.st3{clip-path:url(#SVGID_2_);}
	.st4{fill:#FFFFFF;}
	.st5{display:none;}
	.st6{display:inline;}
	.st7{fill:#1A3B54;}
	.st8{fill:#284666;}
	.st9{clip-path:url(#SVGID_4_);fill:#152D42;}
	.st10{opacity:0.21;fill:#191919;enable-background:new    ;}
	.st11{fill:#F2F7F9;}
	.st12{opacity:0.81;}
	.st13{fill:#EDAF54;}
	.st14{fill:#DD4343;}
	.st15{fill:#F44545;}
	.st16{fill:#F75252;}
	.st17{fill:#E59330;}
	.st18{fill:#E53B00;}
	.st19{fill:#ED5435;}
	.st20{fill:#0C0C0C;}
	.st21{fill:none;}
	.st22{fill:#EAEA36;}
	.st23{fill:#8938E8;}
	.st24{fill:#3ECC92;}
	.st25{fill:#F270A5;}
	.st26{fill:#F261B1;}
</style>
<g>
	<g>
		<path class="st0" d="M647.6,701h-484c-11.2,0-20.4-9.2-20.4-20.4V158.7c0-11.2,9.2-20.4,20.4-20.4h484c11.2,0,20.4,9.2,20.4,20.4
			v521.9C668,691.8,658.8,701,647.6,701z"/>
		<path d="M647.6,704h-484c-12.9,0-23.4-10.5-23.4-23.4V158.7c0-12.9,10.5-23.4,23.4-23.4h484c12.9,0,23.4,10.5,23.4,23.4v521.9
			C671,693.5,660.5,704,647.6,704z M163.6,141.3c-9.6,0-17.4,7.8-17.4,17.4v521.9c0,9.6,7.8,17.4,17.4,17.4h484
			c9.6,0,17.4-7.8,17.4-17.4V158.7c0-9.6-7.8-17.4-17.4-17.4H163.6z"/>
	</g>
	<g>
		<path class="st1" d="M647.9,651.2H163.4c-11.1,0-20.1-9.1-20.1-20.1V108.6c0-11.1,9.1-20.1,20.1-20.1h484.5
			c11.1,0,20.1,9.1,20.1,20.1V631C668,642.1,658.9,651.2,647.9,651.2z"/>
		<path d="M647.9,654.2H163.4c-12.8,0-23.1-10.4-23.1-23.1V108.6c0-12.8,10.4-23.1,23.1-23.1h484.5c12.8,0,23.1,10.4,23.1,23.1V631
			C671,643.8,660.6,654.2,647.9,654.2z M163.4,91.5c-9.4,0-17.1,7.7-17.1,17.1V631c0,9.4,7.7,17.1,17.1,17.1h484.5
			c9.4,0,17.1-7.7,17.1-17.1V108.6c0-9.4-7.7-17.1-17.1-17.1H163.4z"/>
	</g>
	<path class="st2" d="M644.4,548H167.1c-11.1,0-20.1-9.1-20.1-20.1V127.1c0-11.1,9.1-20.1,20.1-20.1h477.4
		c11.1,0,20.1,9.1,20.1,20.1v400.8C664.5,538.9,655.5,548,644.4,548z"/>
	<g>
		<g>
			<defs>
				<path id="SVGID_1_" d="M647.9,650.2H163.4c-11.1,0-20.1-9.1-20.1-20.1V107.6c0-11.1,9.1-20.1,20.1-20.1h484.5
					c11.1,0,20.1,9.1,20.1,20.1V630C668,641.1,658.9,650.2,647.9,650.2z"/>
			</defs>
			<clipPath id="SVGID_2_">
				<use xlink:href="#SVGID_1_"  style="overflow:visible;"/>
			</clipPath>
			<g class="st3">
				<path class="st4" d="M647.3,650.5H164.5c-11.6,0-21-9.4-21-21v-112H668v112.3C668,641.2,658.7,650.5,647.3,650.5z"/>
				<path d="M647.3,653.5H164.5c-13.2,0-24-10.8-24-24v-115H671v115.3C671,642.8,660.3,653.5,647.3,653.5z M146.5,520.5v109
					c0,9.9,8.1,18,18,18h482.8c9.8,0,17.8-8,17.8-17.8V520.5H146.5z"/>
			</g>
		</g>
	</g>
	<g>
		<path d="M373.5,598.4v7.6h-64.6v-7.6h6.9v-15.6H361c-3.3-2.3-8.6-5.6-11.5-7.4l3.2-4.5h-3.8c-1.8,4-3.9,7.6-6.3,10.7l-5.8-4.5v4.2
			h-8.1v-20.1l8.1,0.4v13.2c3.4-4.7,6-9.7,7.7-14.4l-6.6-3.9l1.5-2.2h-6.6l2,2.9l-6.8,3.4c-0.9-1.5-2.6-4.2-3.9-6.3h-1.5
			c-2,2.8-4.1,5.5-6.2,7.7l6.2,0.3v18.5h-8v-18.5l-5.6-4.8c4.7-5,9.2-11.1,11.8-16.6l8.8,1.5c-0.6,1.4-1.3,2.7-2.1,4.2h14.3v3.9
			c1.8-2.9,3.4-6.1,4.9-9.5l8.5,1.3l-1.9,4.3h18.5v7.7h-10.1l2.4,3.2l-6.6,3.9l-4.9-7.1h-3.2c-0.8,1.5-1.8,3.1-2.8,4.5l6.4,1
			c-0.3,1.1-0.6,2-0.9,3.1h19.3v8h-14c3.4,2,7.1,4.3,9.1,5.8l-3.4,6.1h3.4v15.6L373.5,598.4L373.5,598.4z M324.2,598.4h6.4v-8h-6.4
			V598.4z M344.4,590.3h-6.1v8h6.1V590.3z M358.3,590.3H352v8h6.4v-8H358.3z"/>
		<path d="M472.4,590.9c2.3-0.5,4.4-1,5.8-1.4l0.4,8.8c-6.4,1.5-15.4,3.1-22,4.4l-1.2-8.6c1.7-0.2,4.9-0.8,8.5-1.5v-15.5h-6.3v-8.5
			h6.3v-12.4h-6.4v-8.8h20.1v8.8h-5.4v12.4h5v8.5h-5v13.8H472.4z M522.5,594.3l-5.8,7c-7.2-7.1-12.1-14.7-15.7-22.1v15.9
			c0,9.6-1.3,11.2-7.7,12l-5.8,0.7l-2.6-8.5l4.1-0.4c3.1-0.4,3.5-0.7,3.5-5.3V586c-3.4,2.7-7.1,5.3-10.8,8l-4.5-7.7
			c3.1-1.8,10.4-6.6,15.3-10.7v-14.5h-13.9v-8.8h13.9v-10.7l8.5,0.4v10.3h7.2c-1.8-2-3.6-3.8-5.3-5.2l4.8-5c2.6,2,5.6,5,7.9,7.4
			l-2.5,2.8h5.3v8.8h-17.2c1.1,3.5,2.5,6.9,4.2,10.3c3-3,5.6-6.3,7.4-9l6.4,5.5c-2.7,3.7-5.8,7-9.9,10.6
			C513.1,584.6,517.5,590.1,522.5,594.3z M485.4,578.9c-2.8-5-5.6-8.9-7.9-12l6.2-4.5c2.8,3.5,6.1,8,8.1,11.4L485.4,578.9z"/>
	</g>
	<g class="st5">
		<g class="st6">
			<g>
				<polygon class="st7" points="651,490 160,490 277.5,342.5 549.6,342.5 				"/>
				<polygon class="st8" points="651,469.5 160,469.5 277.5,322 549.6,322 				"/>
				<g>
					<g>
						<defs>
							<polygon id="SVGID_3_" points="651,469.5 160,469.5 277.5,322 549.6,322 							"/>
						</defs>
						<clipPath id="SVGID_4_">
							<use xlink:href="#SVGID_3_"  style="overflow:visible;"/>
						</clipPath>
						<rect x="189" y="230" class="st9" width="490" height="136"/>
					</g>
				</g>
				<polygon class="st7" points="160,469.5 160,490 176.4,469.5 				"/>
				<polygon class="st7" points="651,469.5 651,490 634.6,469.5 				"/>
			</g>
			<g>
				<g>
					<rect x="235" y="350" class="st10" width="345" height="37"/>
					<path class="st11" d="M235.5,392L235.5,392c-1.4,0-1.5-1.1-1.5-2.5v-41c0-1.4,0.1-2.5,1.5-2.5l0,0c1.4,0,1.5,1.1,1.5,2.5v41
						C237,390.9,236.9,392,235.5,392z"/>
					<path class="st11" d="M581.5,392L581.5,392c-1.4,0-1.5-1.1-1.5-2.5v-41c0-1.4,0.1-2.5,1.5-2.5l0,0c1.4,0,1.5,1.1,1.5,2.5v41
						C583,390.9,582.9,392,581.5,392z"/>
				</g>
				<g class="st12">
					<path class="st4" d="M395.4,373.4c-4.4,0-7.9-3.6-7.9-7.9s3.6-7.9,7.9-7.9s7.9,3.6,7.9,7.9S399.8,373.4,395.4,373.4z
						 M395.4,358.5c-3.8,0-6.9,3.1-6.9,6.9s3.1,6.9,6.9,6.9s6.9-3.1,6.9-6.9S399.3,358.5,395.4,358.5z"/>
					<path class="st4" d="M413.5,373.4c-4.4,0-7.9-3.6-7.9-7.9s3.6-7.9,7.9-7.9s7.9,3.6,7.9,7.9S417.9,373.4,413.5,373.4z
						 M413.5,358.5c-3.8,0-6.9,3.1-6.9,6.9s3.1,6.9,6.9,6.9s6.9-3.1,6.9-6.9S417.3,358.5,413.5,358.5z"/>
					<path class="st4" d="M431.6,373.4c-4.4,0-7.9-3.6-7.9-7.9s3.6-7.9,7.9-7.9s7.9,3.6,7.9,7.9S435.9,373.4,431.6,373.4z
						 M431.6,358.5c-3.8,0-6.9,3.1-6.9,6.9s3.1,6.9,6.9,6.9s6.9-3.1,6.9-6.9S435.4,358.5,431.6,358.5z"/>
					<path class="st4" d="M404.5,380.3c-4.4,0-7.9-3.6-7.9-7.9s3.6-7.9,7.9-7.9s7.9,3.6,7.9,7.9S408.8,380.3,404.5,380.3z
						 M404.5,365.4c-3.8,0-6.9,3.1-6.9,6.9s3.1,6.9,6.9,6.9s6.9-3.1,6.9-6.9S408.3,365.4,404.5,365.4z"/>
					<path class="st4" d="M422.5,380.3c-4.4,0-7.9-3.6-7.9-7.9s3.6-7.9,7.9-7.9s7.9,3.6,7.9,7.9S426.9,380.3,422.5,380.3z
						 M422.5,365.4c-3.8,0-6.9,3.1-6.9,6.9s3.1,6.9,6.9,6.9s6.9-3.1,6.9-6.9S426.4,365.4,422.5,365.4z"/>
				</g>
			</g>
		</g>
		<g class="st6">
			<g>
				<g>
					<g>
						<path class="st13" d="M549.7,395.9l-6.4,2.6c-4.7,1.9-10.1-0.3-12.1-5L509,339.4c-1.9-4.7,0.3-10.1,5-12.1l6.4-2.6
							c4.7-1.9,10.1,0.3,12.1,5l22.2,54.1C556.6,388.6,554.4,394,549.7,395.9z"/>
						<path d="M539.8,403.2c-1.7,0-3.5-0.3-5.1-1c-3.3-1.4-5.8-3.9-7.1-7.2l-22.2-54.1c-1.3-3.3-1.3-6.9,0-10.1
							c1.4-3.3,3.9-5.8,7.2-7.1l6.4-2.6c6.8-2.8,14.5,0.5,17.3,7.2l22.2,54.1c1.3,3.3,1.3,6.9,0,10.1s-3.9,5.8-7.2,7.1l-6.4,2.6
							C543.2,402.9,541.5,403.2,539.8,403.2z M523.9,328c-0.7,0-1.3,0.1-2,0.4l-6.4,2.6c-1.3,0.5-2.3,1.5-2.8,2.8s-0.5,2.7,0,4
							l22.2,54.1c0.5,1.3,1.5,2.3,2.8,2.8s2.7,0.5,4,0l6.4-2.6c1.3-0.5,2.3-1.5,2.8-2.8s0.5-2.7,0-4l-22.2-54.1
							C527.9,329.2,526,328,523.9,328z"/>
					</g>
					<g>
						<circle class="st14" cx="485.3" cy="256.9" r="81.7"/>
						<path d="M485.3,342.7c-11.2,0-22.4-2.2-33-6.7c-21.1-8.8-37.5-25.3-46.2-46.5s-8.6-44.5,0.2-65.6
							c8.8-21.1,25.3-37.5,46.5-46.2s44.5-8.6,65.6,0.2s37.5,25.3,46.2,46.5s8.6,44.5-0.2,65.6s-25.3,37.5-46.5,46.2
							C507.3,340.5,496.3,342.7,485.3,342.7z M485.3,179.2c-10,0-20,2-29.5,5.9c-19.2,7.9-34.2,22.8-42.2,41.9s-8.1,40.3-0.2,59.4
							c7.9,19.2,22.8,34.2,41.9,42.2s40.3,8.1,59.4,0.2C534,320.9,549,306,557,286.9s8.1-40.3,0.2-59.4l0,0
							c-7.9-19.2-22.8-34.2-41.9-42.2C505.6,181.2,495.5,179.2,485.3,179.2z"/>
					</g>
					<circle class="st15" cx="479.2" cy="264" r="68"/>
					<path class="st16" d="M541,261c0,0,3,57-53,64C488,325,529,311,541,261z"/>
					<path class="st17" d="M549.3,390.9l-1.8,0.7c-1.5,0.6-3.3-0.1-3.9-1.6l-21.2-51.6c-0.6-1.5,0.1-3.3,1.6-3.9l1.8-0.7
						c1.5-0.6,3.3,0.1,3.9,1.6l21.2,51.6C551.6,388.5,550.9,390.2,549.3,390.9z"/>
				</g>
				<g>
					<g>
						<path class="st13" d="M269.7,418.9l-5.8-3.7c-4.3-2.7-5.6-8.4-2.9-12.7l31.1-49.6c2.7-4.3,8.4-5.6,12.7-2.9l5.8,3.7
							c4.3,2.7,5.6,8.4,2.9,12.7L282.4,416C279.7,420.3,274,421.6,269.7,418.9z"/>
						<path d="M274.5,424.3c-2.5,0-4.9-0.7-7-2l-5.8-3.7c-3-1.9-5.1-4.8-5.9-8.3c-0.8-3.5-0.2-7,1.7-10l31.1-49.6
							c3.9-6.2,12.1-8.1,18.2-4.2l5.8,3.7c6.2,3.9,8.1,12.1,4.2,18.2L285.7,418c-1.9,3-4.8,5.1-8.3,5.9
							C276.5,424.2,275.5,424.3,274.5,424.3z M299.9,352.6c-1.7,0-3.5,0.9-4.4,2.5l-31.1,49.6c-0.7,1.2-1,2.6-0.7,3.9
							c0.3,1.4,1.1,2.5,2.3,3.3l5.8,3.7c1.2,0.7,2.6,1,3.9,0.7c1.4-0.3,2.5-1.1,3.3-2.3l31.1-49.6c1.5-2.4,0.8-5.7-1.7-7.2l-5.8-3.7
							C301.8,352.9,300.8,352.6,299.9,352.6z"/>
					</g>
					<g>
						<circle class="st14" cx="345.3" cy="285.7" r="81.7"/>
						<path d="M345.1,371.4c-15.9,0-31.6-4.5-45.4-13.1c-40-25.1-52.1-78.1-27-118.1s78.1-52.1,118.1-27s52.1,78.1,27,118.1
							c-12.2,19.4-31.1,32.9-53.5,38C358,370.7,351.6,371.4,345.1,371.4z M345.4,208c-25.9,0-51.2,12.9-65.9,36.4
							c-11,17.6-14.5,38.4-9.9,58.6s16.9,37.4,34.4,48.5c17.6,11,38.4,14.6,58.6,9.9c20.2-4.6,37.4-16.9,48.5-34.4
							c22.8-36.3,11.8-84.3-24.5-107.1C373.8,211.9,359.5,208,345.4,208z"/>
					</g>
					<circle class="st15" cx="352" cy="291.4" r="69"/>
					<path class="st16" d="M289,283c0,0,17-70,88-50C377,233,314,222,289,283z"/>
					<path class="st17" d="M266,410L266,410c1.6,1,3.8,0.5,4.8-1.1l28.9-46c1-1.6,0.5-3.8-1.1-4.8l0,0c-1.6-1-3.8-0.5-4.8,1.1
						l-28.9,46C263.8,406.8,264.3,408.9,266,410z"/>
				</g>
			</g>
			<g>
				<g>
					<g>
						<circle class="st11" cx="474.5" cy="241.5" r="24.5"/>
						<circle class="st4" cx="469.8" cy="231.5" r="9.5"/>
					</g>
				</g>
				<g>
					<g>
						<circle class="st11" cx="371.5" cy="323.5" r="24.5"/>
						<circle class="st4" cx="373.8" cy="314.5" r="9.5"/>
					</g>
				</g>
			</g>
		</g>
	</g>
	<g>
		<g>
			<g>
				<circle class="st18" cx="408.7" cy="257.7" r="117.6"/>
				<path d="M408.7,379.3c-56.3,0-107-39.4-119-96.7c-13.8-65.6,28.4-130.3,94.1-144c65.6-13.8,130.3,28.4,144,94.1l0,0
					c13.8,65.6-28.4,130.3-94.1,144C425.3,378.5,416.9,379.3,408.7,379.3z M408.7,144c-7.7,0-15.5,0.8-23.4,2.4
					C324,159.3,284.6,219.7,297.5,281s73.2,100.7,134.6,87.9c61.3-12.9,100.7-73.2,87.9-134.6l0,0C508.7,180.8,461.3,144,408.7,144z
					"/>
			</g>
			
				<ellipse transform="matrix(0.9787 -0.2054 0.2054 0.9787 -43.5275 86.8993)" class="st19" cx="396.8" cy="253.1" rx="100.7" ry="104.5"/>
			<path class="st20" d="M294.4,284.8l-1.7-6.8c1.2-0.3,116.8-30.4,207.3-95l4.1,5.7C412.4,254.1,295.5,284.5,294.4,284.8z"/>
			<path class="st20" d="M460.9,364.9c-50.2-37.1-76.9-92.8-90.5-133.1c-14.7-43.5-17.6-78.8-17.6-79.2l7-0.5
				c0,0.3,2.9,35,17.3,77.7c13.3,39.2,39.3,93.6,88,129.5L460.9,364.9z"/>
			<path class="st20" d="M514,304.5c-7.5-17.9-29.5-25.6-50.8-33.2c-21.4-7.6-43.4-15.4-51.3-33.8c-17.4-40.7,11.5-95.3,12.7-97.6
				l6.2,3.3c-0.3,0.5-28.5,54-12.4,91.6c6.7,15.6,26.4,22.6,47.3,30c22.7,8,46.2,16.4,54.9,37.1L514,304.5z"/>
			<path class="st20" d="M338.2,356.1c-9.5-20.6-2.3-33.9,4.1-45.7c6-11.1,11.2-20.7,4.3-35.9c-16.9-37.1-51.7-44.2-52-44.2l1.3-6.9
				c1.6,0.3,38.7,7.8,57.1,48.2c8.4,18.4,1.5,31-4.5,42.2c-6.2,11.3-12,22-3.9,39.4L338.2,356.1z"/>
		</g>
		<g>
			<path class="st20" d="M318.6,486.4l-58.2-189.2c-0.6-1.8,0.5-3.8,2.3-4.4s3.8,0.5,4.4,2.3L321.5,472c6.3-6.5,19.1-18,35.9-23.7
				c13.7-4.5,21.1,5.2,26.6,12.3c2.6,3.4,5.1,6.7,7.7,7.9c1,0.5,3.5,1.7,8.6-2.2l0.7-0.6c19.5-15,30.3-23.3,56.8-1.5
				c5.8,4.8,11.8,6.7,17.7,5.8c11.7-1.9,20.2-13.9,21.6-15.9L553.7,302c0.7-1.8,2.7-2.7,4.5-2.1c1.8,0.7,2.7,2.7,2.1,4.5l-56.8,153
				l-0.2,0.3c-0.4,0.7-10.9,16.8-26.6,19.3c-8,1.3-15.9-1.2-23.3-7.3c-22.2-18.3-28.7-13.3-48.1,1.6l-0.7,0.6
				c-5.7,4.4-11.1,5.4-16,2.9c-4-2-7-5.9-10.1-9.9c-6.2-8-10.5-12.7-18.9-9.9c-21.9,7.3-36.7,26-36.9,26.2L318.6,486.4z"/>
			<g>
				<line class="st21" x1="283.8" y1="274.9" x2="340.5" y2="461.1"/>
				<path class="st20" d="M340.5,464.6c-1.5,0-2.9-1-3.3-2.5l-56.7-186.3c-0.6-1.8,0.5-3.8,2.3-4.4s3.8,0.5,4.4,2.3L343.9,460
					c0.6,1.8-0.5,3.8-2.3,4.4C341.2,464.6,340.8,464.6,340.5,464.6z"/>
			</g>
			<g>
				<line class="st21" x1="310.6" y1="261.7" x2="367.1" y2="448.6"/>
				<path class="st20" d="M367.1,452.1c-1.5,0-2.9-1-3.3-2.5l-56.5-186.9c-0.6-1.9,0.5-3.8,2.3-4.4c1.9-0.6,3.8,0.5,4.4,2.3
					l56.5,186.9c0.6,1.9-0.5,3.8-2.3,4.4C367.8,452,367.4,452.1,367.1,452.1z"/>
			</g>
			<g>
				<line class="st21" x1="340.7" y1="254.6" x2="404.8" y2="465"/>
				<path class="st20" d="M404.8,468.5c-1.5,0-2.9-1-3.3-2.5l-64.1-210.4c-0.6-1.8,0.5-3.8,2.3-4.4c1.8-0.6,3.8,0.5,4.4,2.3
					l64,210.5c0.6,1.8-0.5,3.8-2.3,4.4C405.5,468.4,405.1,468.5,404.8,468.5z"/>
			</g>
			<g>
				<line class="st21" x1="374.1" y1="248.5" x2="441" y2="457.3"/>
				<path class="st20" d="M441,460.8c-1.5,0-2.9-0.9-3.3-2.4l-66.9-208.8c-0.6-1.8,0.4-3.8,2.3-4.4s3.8,0.4,4.4,2.3l66.9,208.8
					c0.6,1.8-0.4,3.8-2.3,4.4C441.7,460.7,441.4,460.8,441,460.8z"/>
			</g>
			<g>
				<line class="st21" x1="415.4" y1="246.5" x2="481.1" y2="469.2"/>
				<path class="st20" d="M481.1,472.7c-1.5,0-2.9-1-3.4-2.5L412,247.5c-0.5-1.9,0.5-3.8,2.4-4.3s3.8,0.5,4.3,2.4l65.7,222.7
					c0.5,1.9-0.5,3.8-2.4,4.3C481.7,472.7,481.4,472.7,481.1,472.7z"/>
			</g>
			<g>
				<line class="st21" x1="449.9" y1="248.5" x2="505.7" y2="439.8"/>
				<path class="st20" d="M505.7,443.3c-1.5,0-2.9-1-3.4-2.5l-55.8-191.2c-0.5-1.9,0.5-3.8,2.4-4.3s3.8,0.5,4.3,2.4L509,438.9
					c0.5,1.9-0.5,3.8-2.4,4.3C506.4,443.2,506.1,443.3,505.7,443.3z"/>
			</g>
			<g>
				<line class="st21" x1="491.2" y1="254.6" x2="525" y2="388"/>
				<path class="st20" d="M525,391.5c-1.6,0-3-1.1-3.4-2.6l-33.8-133.3c-0.5-1.9,0.7-3.8,2.5-4.3c1.9-0.5,3.8,0.7,4.3,2.5
					l33.8,133.3c0.5,1.9-0.7,3.8-2.5,4.3C525.6,391.4,525.3,391.5,525,391.5z"/>
			</g>
			<g>
				<line class="st21" x1="528" y1="265.8" x2="474.9" y2="472"/>
				<path class="st20" d="M474.9,475.5c-0.3,0-0.6,0-0.9-0.1c-1.9-0.5-3-2.4-2.5-4.3l53.1-206.2c0.5-1.9,2.4-3,4.3-2.5
					c1.9,0.5,3,2.4,2.5,4.3l-53.1,206.2C477.9,474.4,476.5,475.5,474.9,475.5z"/>
			</g>
			<g>
				<line class="st21" x1="497.9" y1="255.6" x2="441" y2="457.3"/>
				<path class="st20" d="M441,460.8c-0.3,0-0.6,0-1-0.1c-1.9-0.5-2.9-2.5-2.4-4.3l56.9-201.7c0.5-1.9,2.5-2.9,4.3-2.4
					c1.9,0.5,2.9,2.5,2.4,4.3l-56.9,201.7C443.9,459.8,442.5,460.8,441,460.8z"/>
			</g>
			<g>
				<line class="st21" x1="466.7" y1="250.6" x2="407.1" y2="460.8"/>
				<path class="st20" d="M407.1,464.3c-0.3,0-0.6,0-1-0.1c-1.9-0.5-2.9-2.5-2.4-4.3l59.6-210.2c0.5-1.9,2.5-2.9,4.3-2.4
					c1.9,0.5,2.9,2.5,2.4,4.3l-59.6,210.2C410,463.3,408.6,464.3,407.1,464.3z"/>
			</g>
			<g>
				<line class="st21" x1="431" y1="246.5" x2="373.2" y2="453.8"/>
				<path class="st20" d="M373.2,457.3c-0.3,0-0.6,0-0.9-0.1c-1.9-0.5-3-2.4-2.4-4.3l57.8-207.3c0.5-1.9,2.5-3,4.3-2.4
					c1.9,0.5,3,2.4,2.4,4.3l-57.8,207.3C376.1,456.3,374.7,457.3,373.2,457.3z"/>
			</g>
			<g>
				<line class="st21" x1="395.3" y1="248.5" x2="334.3" y2="462.8"/>
				<path class="st20" d="M334.3,466.3c-0.3,0-0.6,0-1-0.1c-1.9-0.5-2.9-2.5-2.4-4.3l61-214.3c0.5-1.9,2.5-2.9,4.3-2.4
					c1.9,0.5,2.9,2.5,2.4,4.3l-61,214.3C337.2,465.3,335.8,466.3,334.3,466.3z"/>
			</g>
			<g>
				<line class="st21" x1="355.2" y1="252.6" x2="305.3" y2="430.7"/>
				<path class="st20" d="M305.3,434.2c-0.3,0-0.6,0-0.9-0.1c-1.9-0.5-2.9-2.5-2.4-4.3l49.8-178.1c0.5-1.9,2.5-2.9,4.3-2.4
					c1.9,0.5,2.9,2.5,2.4,4.3l-49.8,178.1C308.3,433.2,306.9,434.2,305.3,434.2z"/>
			</g>
			<g>
				<line class="st21" x1="321.7" y1="258.7" x2="287.6" y2="371.2"/>
				<path class="st20" d="M287.6,374.7c-0.3,0-0.7,0-1-0.2c-1.8-0.6-2.9-2.5-2.3-4.4l34.1-112.5c0.6-1.9,2.5-2.9,4.4-2.3
					s2.9,2.5,2.3,4.4L291,372.2C290.5,373.7,289.1,374.7,287.6,374.7z"/>
			</g>
		</g>
		<path class="st20" d="M315.7,339.3c-0.3,0-0.6,0-0.9-0.1c-36.6-10.1-56.7-25-56.7-41.9c0-14.9,16.2-28.6,45.5-38.5
			c28.2-9.5,65.5-14.7,105.2-14.7s77.1,5.2,105.2,14.7c29.3,9.9,45.5,23.6,45.5,38.5c0,15.5-19.3,29.8-54.2,40.1
			c-1.9,0.6-3.8-0.5-4.4-2.4c-0.5-1.9,0.5-3.8,2.4-4.4c30.8-9.2,49.2-21.6,49.2-33.4c0-22.3-57.8-46.2-143.7-46.2
			c-86,0-143.7,23.9-143.7,46.2c0,13.1,19.3,26.2,51.6,35.2c1.9,0.5,3,2.4,2.4,4.3C318.6,338.3,317.2,339.3,315.7,339.3z"/>
	</g>
	<g class="st5">
		<path class="st6" d="M329.8,596.1h-38.6l4.1,4.9c-6.4,5.6-15.3,11.2-21.9,14.4l-5.3-8c5.8-2.3,14.1-7.3,19.3-11.3h-21.5v-8.8h10.7
			v-33.6c16.7-0.9,32.3-2.2,44.3-4.7l1.8,8.7c-9.3,2.1-24,3.7-36.7,4.5v6.1h40.8v8.7h-11.5v10.3h14.4v8.8H329.8z M286.1,587.2h19.8
			v-10.3h-19.8V587.2z"/>
		<path class="st6" d="M439.1,596.1h-21.5c5.8,3.4,13.7,8,18.5,11.2l-4.7,8.3c-6-4.2-16.5-10.7-21.9-14l3.5-5.5h-37.8v-8.8H386
			v-33.7c16.7-0.8,32.4-2.1,44.3-4.7l1.8,8.7c-9.4,2.1-23.9,3.8-36.7,4.6v6.1h40.9v8.7h-11.5v10.3h14.3L439.1,596.1L439.1,596.1z
			 M395.4,587.2h19.9v-10.3h-19.9V587.2z"/>
		<path class="st6" d="M500.8,597.9c2.3-0.5,4.4-1,5.8-1.4l0.4,8.8c-6.4,1.5-15.4,3.1-22,4.4l-1.2-8.6c1.7-0.2,4.9-0.8,8.5-1.5
			v-15.5H486v-8.5h6.3v-12.4H486v-8.8h20.1v8.8h-5.4v12.4h5v8.5h-5L500.8,597.9L500.8,597.9z M550.9,601.3l-5.8,7
			c-7.2-7.1-12.1-14.7-15.7-22.1v15.9c0,9.6-1.3,11.2-7.7,12l-5.8,0.7l-2.6-8.5l4.1-0.4c3.1-0.4,3.5-0.7,3.5-5.3V593
			c-3.4,2.7-7.1,5.3-10.8,8l-4.5-7.7c3.1-1.8,10.4-6.6,15.3-10.7v-14.5H507v-8.8h13.9v-10.7l8.5,0.4v10.3h7.2
			c-1.8-2-3.6-3.8-5.3-5.2l4.8-5c2.6,2,5.6,5,7.9,7.4l-2.5,2.8h5.3v8.8h-17.2c1.1,3.5,2.5,6.9,4.2,10.3c3-3,5.6-6.3,7.4-9l6.4,5.5
			c-2.7,3.7-5.8,7-9.9,10.6C541.5,591.7,546,597.1,550.9,601.3z M513.8,586c-2.8-5-5.6-8.9-7.9-12l6.2-4.5c2.8,3.5,6.1,8,8.1,11.4
			L513.8,586z"/>
	</g>
	<g>
		<path class="st22" d="M209.4,179.5h-0.8c-1.4,0-2.5-1.1-2.5-2.5v-22.4c0-1.4,1.1-2.5,2.5-2.5h0.8c1.4,0,2.5,1.1,2.5,2.5V177
			C212,178.3,210.8,179.5,209.4,179.5z"/>
		<path class="st22" d="M210.6,222.5h-0.8c-1.4,0-2.5-1.1-2.5-2.5v-22.4c0-1.4,1.1-2.5,2.5-2.5h0.8c1.4,0,2.5,1.1,2.5,2.5V220
			C213.1,221.4,212,222.5,210.6,222.5z"/>
		<path class="st22" d="M203.5,181.7l-0.6,0.6c-0.9,1-2.6,1.1-3.6,0.2l-16.6-15c-1-0.9-1.1-2.6-0.2-3.6l0.6-0.6
			c0.9-1,2.6-1.1,3.6-0.2l16.6,15C204.4,179,204.5,180.7,203.5,181.7z"/>
		<path class="st22" d="M235.4,210.6l-0.6,0.6c-0.9,1-2.6,1.1-3.6,0.2l-16.6-15c-1-0.9-1.1-2.6-0.2-3.6l0.6-0.6
			c0.9-1,2.6-1.1,3.6-0.2l16.6,15C236.3,208,236.3,209.6,235.4,210.6z"/>
		<path class="st22" d="M204.2,192.7l0.6,0.6c1,0.9,1.1,2.6,0.2,3.6l-15,16.6c-0.9,1-2.6,1.1-3.6,0.2l-0.6-0.6
			c-1-0.9-1.1-2.6-0.2-3.6l15-16.6C201.5,191.9,203.2,191.8,204.2,192.7z"/>
		<path class="st22" d="M233.1,160.9l0.6,0.6c1,0.9,1.1,2.6,0.2,3.6l-15,16.6c-0.9,1-2.6,1.1-3.6,0.2l-0.6-0.6
			c-1-0.9-1.1-2.6-0.2-3.6l15-16.6C230.5,160,232.1,159.9,233.1,160.9z"/>
		<path class="st22" d="M202,186.8v0.8c0,1.4-1.1,2.5-2.5,2.5H177c-1.4,0-2.5-1.1-2.5-2.5v-0.8c0-1.4,1.1-2.5,2.5-2.5h22.4
			C200.8,184.3,202,185.4,202,186.8z"/>
		<path class="st22" d="M245,186.8v0.8c0,1.4-1.1,2.5-2.5,2.5h-22.4c-1.4,0-2.5-1.1-2.5-2.5v-0.8c0-1.4,1.1-2.5,2.5-2.5h22.4
			C243.9,184.3,245,185.4,245,186.8z"/>
	</g>
	<g>
		<path class="st23" d="M611.5,370.7L611.5,370.7c-1,0-1.8-0.8-1.8-1.8v-13.1c0-1,0.8-1.8,1.8-1.8l0,0c1,0,1.8,0.8,1.8,1.8v13.1
			C613.4,369.9,612.5,370.7,611.5,370.7z"/>
		<path class="st23" d="M612.3,397L612.3,397c-1,0-1.8-0.8-1.8-1.8v-13.1c0-1,0.8-1.8,1.8-1.8l0,0c1,0,1.8,0.8,1.8,1.8v13.1
			C614.1,396.2,613.3,397,612.3,397z"/>
		<path class="st23" d="M608,372.3L608,372.3c-0.7,0.7-1.8,0.8-2.6,0.1l-9.7-8.8c-0.7-0.7-0.8-1.8-0.1-2.6l0,0
			c0.7-0.7,1.8-0.8,2.6-0.1l9.7,8.8C608.6,370.4,608.7,371.6,608,372.3z"/>
		<path class="st23" d="M627.5,389.9L627.5,389.9c-0.7,0.7-1.8,0.8-2.6,0.1l-9.7-8.8c-0.7-0.7-0.8-1.8-0.1-2.6l0,0
			c0.7-0.7,1.8-0.8,2.6-0.1l9.7,8.8C628.1,388.1,628.1,389.2,627.5,389.9z"/>
		<path class="st23" d="M608.8,379L608.8,379c0.7,0.7,0.8,1.8,0.1,2.6l-8.8,9.7c-0.7,0.7-1.8,0.8-2.6,0.1l0,0
			c-0.7-0.7-0.8-1.8-0.1-2.6l8.8-9.7C606.9,378.4,608.1,378.4,608.8,379z"/>
		<path class="st23" d="M626.4,359.6L626.4,359.6c0.7,0.7,0.8,1.8,0.1,2.6l-8.8,9.7c-0.7,0.7-1.8,0.8-2.6,0.1l0,0
			c-0.7-0.7-0.8-1.8-0.1-2.6l8.8-9.7C624.6,359,625.7,358.9,626.4,359.6z"/>
		<path class="st23" d="M607.2,375.5L607.2,375.5c0,1-0.8,1.8-1.8,1.8h-13.1c-1,0-1.8-0.8-1.8-1.8l0,0c0-1,0.8-1.8,1.8-1.8h13.1
			C606.4,373.7,607.2,374.5,607.2,375.5z"/>
		<path class="st23" d="M633.5,375.5L633.5,375.5c0,1-0.8,1.8-1.8,1.8h-13.1c-1,0-1.8-0.8-1.8-1.8l0,0c0-1,0.8-1.8,1.8-1.8h13.1
			C632.7,373.7,633.5,374.5,633.5,375.5z"/>
	</g>
	<path class="st24" d="M625,336c-11.6,0-21-9.4-21-21s9.4-21,21-21s21,9.4,21,21S636.6,336,625,336z M625,303c-6.6,0-12,5.4-12,12
		s5.4,12,12,12s12-5.4,12-12S631.6,303,625,303z"/>
	<path class="st25" d="M191,267c-5.5,0-10-4.5-10-10s4.5-10,10-10s10,4.5,10,10S196.5,267,191,267z M191,251c-3.3,0-6,2.7-6,6
		c0,3.3,2.7,6,6,6s6-2.7,6-6S194.3,251,191,251z"/>
	<path class="st26" d="M594.9,171.3l15,4.7c0,0-4.3,3.7-7.2,14.9c-2.8,11.2-3.1,18.1-3.1,18.1l-12.1-3.8
		C587.5,205.2,602.5,189.6,594.9,171.3z"/>
	<g>
		<path class="st4" d="M210.9,452.5h-2.1c-0.5,0-0.9-0.4-0.9-0.9v-24.4c0-0.5,0.4-0.9,0.9-0.9h2.1c0.5,0,0.9,0.4,0.9,0.9v24.4
			C211.9,452.1,211.4,452.5,210.9,452.5z"/>
		<path class="st4" d="M196.7,440.4v-2.1c0-0.5,0.4-0.9,0.9-0.9H222c0.5,0,0.9,0.4,0.9,0.9v2.1c0,0.5-0.4,0.9-0.9,0.9h-24.4
			C197.2,441.4,196.7,440.9,196.7,440.4z"/>
	</g>
</g>
</svg>
