<svg xmlns="http://www.w3.org/2000/svg" viewBox="0 0 213.51 219.52"><defs><style>.cls-1{fill:#e3b99a;}.cls-2{fill:#c15962;}.cls-3{fill:#152c39;}.cls-4{fill:none;stroke:#122b38;stroke-miterlimit:10;stroke-width:8px;}</style></defs><g id="图层_2" data-name="图层 2"><g id="图层_1-2" data-name="图层 1"><path class="cls-1" d="M95.12,0h13.65a64.8,64.8,0,0,1,64.8,64.8V171.64a46.9,46.9,0,0,1-46.9,46.9H77.22a46.9,46.9,0,0,1-46.9-46.9V64.8A64.8,64.8,0,0,1,95.12,0Z"/><rect class="cls-2" x="85.79" y="157.3" width="10.76" height="48.71" rx="4.92" transform="translate(-90.48 272.83) rotate(-90)"/><circle class="cls-3" cx="121.8" cy="98.31" r="8.09"/><circle class="cls-3" cx="41.84" cy="95.76" r="8.09"/><rect class="cls-3" x="61" y="72.17" width="40.56" height="9" rx="3.84" transform="translate(162.55 153.34) rotate(180)"/><rect class="cls-3" x="153.29" y="70.16" width="40.56" height="9" rx="3.84" transform="translate(347.15 149.33) rotate(180)"/><rect class="cls-2" x="66.82" y="82.71" width="25.13" height="70.01" rx="8.03"/><rect class="cls-3" x="82.12" y="197.21" width="27.79" height="21.47" rx="9.01"/><path class="cls-3" d="M53.63,204.74h86a0,0,0,0,1,0,0v4.41a10.37,10.37,0,0,1-10.37,10.37H64a10.37,10.37,0,0,1-10.37-10.37v-4.41a0,0,0,0,1,0,0Z"/><ellipse class="cls-1" cx="179.16" cy="110.58" rx="34.35" ry="34.46"/><ellipse class="cls-2" cx="181.9" cy="110.58" rx="16.98" ry="17.03"/><rect class="cls-4" x="7.11" y="61.72" width="50.78" height="57" rx="13.2" transform="translate(122.72 57.72) rotate(90)"/><rect class="cls-4" x="104.5" y="63.03" width="50.78" height="57" rx="13.2" transform="translate(221.42 -38.36) rotate(90)"/></g></g></svg>